<?xml version="1.0" encoding="utf-8" standalone="no"?>
<!DOCTYPE svg PUBLIC "-//W3C//DTD SVG 1.1//EN"
  "http://www.w3.org/Graphics/SVG/1.1/DTD/svg11.dtd">
<svg xmlns:xlink="http://www.w3.org/1999/xlink" width="1008pt" height="547.2pt" viewBox="0 0 1008 547.2" xmlns="http://www.w3.org/2000/svg" version="1.1">
 <metadata>
  <rdf:RDF xmlns:dc="http://purl.org/dc/elements/1.1/" xmlns:cc="http://creativecommons.org/ns#" xmlns:rdf="http://www.w3.org/1999/02/22-rdf-syntax-ns#">
   <cc:Work>
    <dc:type rdf:resource="http://purl.org/dc/dcmitype/StillImage"/>
    <dc:date>2026-09-09T17:01:31.760622</dc:date>
    <dc:format>image/svg+xml</dc:format>
    <dc:creator>
     <cc:Agent>
      <dc:title>Matplotlib v3.10.3, https://matplotlib.org/</dc:title>
     </cc:Agent>
    </dc:creator>
   </cc:Work>
  </rdf:RDF>
 </metadata>
 <defs>
  <style type="text/css">*{stroke-linejoin: round; stroke-linecap: butt}</style>
 </defs>
 <g id="figure_1">
  <g id="patch_1">
   <path d="M 0 547.2 
L 1008 547.2 
L 1008 0 
L 0 0 
z
" style="fill: #ffffff"/>
  </g>
  <g id="axes_1">
   <g id="patch_2">
    <path d="M 80.64 487.008 
L 977.76 487.008 
L 977.76 120.384 
L 80.64 120.384 
z
" style="fill: #ffffff"/>
   </g>
   <g id="matplotlib.axis_1">
    <g id="xtick_1">
     <g id="line2d_1">
      <defs>
       <path id="mdc535968cb" d="M 0 0 
L 0 3.5 
" style="stroke: #000000; stroke-width: 0.8"/>
      </defs>
      <g>
       <use xlink:href="#mdc535968cb" x="85.05931" y="487.008" style="stroke: #000000; stroke-width: 0.8"/>
      </g>
     </g>
     <g id="text_1">
      <text style="font-size: 11px; font-family: 'Noto Sans CJK JP'; text-anchor: middle" x="85.05931" y="502.763312" transform="rotate(-0 85.05931 502.763312)">0</text>
     </g>
    </g>
    <g id="xtick_2">
     <g id="line2d_2">
      <g>
       <use xlink:href="#mdc535968cb" x="225.354877" y="487.008" style="stroke: #000000; stroke-width: 0.8"/>
      </g>
     </g>
     <g id="text_2">
      <text style="font-size: 11px; font-family: 'Noto Sans CJK JP'; text-anchor: middle" x="225.354877" y="502.763312" transform="rotate(-0 225.354877 502.763312)">40</text>
     </g>
    </g>
    <g id="xtick_3">
     <g id="line2d_3">
      <g>
       <use xlink:href="#mdc535968cb" x="365.650443" y="487.008" style="stroke: #000000; stroke-width: 0.8"/>
      </g>
     </g>
     <g id="text_3">
      <text style="font-size: 11px; font-family: 'Noto Sans CJK JP'; text-anchor: middle" x="365.650443" y="502.763312" transform="rotate(-0 365.650443 502.763312)">80</text>
     </g>
    </g>
    <g id="xtick_4">
     <g id="line2d_4">
      <g>
       <use xlink:href="#mdc535968cb" x="505.94601" y="487.008" style="stroke: #000000; stroke-width: 0.8"/>
      </g>
     </g>
     <g id="text_4">
      <text style="font-size: 11px; font-family: 'Noto Sans CJK JP'; text-anchor: middle" x="505.94601" y="502.763312" transform="rotate(-0 505.94601 502.763312)">120</text>
     </g>
    </g>
    <g id="xtick_5">
     <g id="line2d_5">
      <g>
       <use xlink:href="#mdc535968cb" x="646.241576" y="487.008" style="stroke: #000000; stroke-width: 0.8"/>
      </g>
     </g>
     <g id="text_5">
      <text style="font-size: 11px; font-family: 'Noto Sans CJK JP'; text-anchor: middle" x="646.241576" y="502.763312" transform="rotate(-0 646.241576 502.763312)">160</text>
     </g>
    </g>
    <g id="xtick_6">
     <g id="line2d_6">
      <g>
       <use xlink:href="#mdc535968cb" x="786.537143" y="487.008" style="stroke: #000000; stroke-width: 0.8"/>
      </g>
     </g>
     <g id="text_6">
      <text style="font-size: 11px; font-family: 'Noto Sans CJK JP'; text-anchor: middle" x="786.537143" y="502.763312" transform="rotate(-0 786.537143 502.763312)">200</text>
     </g>
    </g>
    <g id="xtick_7">
     <g id="line2d_7">
      <g>
       <use xlink:href="#mdc535968cb" x="926.832709" y="487.008" style="stroke: #000000; stroke-width: 0.8"/>
      </g>
     </g>
     <g id="text_7">
      <text style="font-size: 11px; font-family: 'Noto Sans CJK JP'; text-anchor: middle" x="926.832709" y="502.763312" transform="rotate(-0 926.832709 502.763312)">240</text>
     </g>
    </g>
    <g id="text_8">
     <text style="font-size: 11px; font-family: 'Noto Sans CJK JP'; text-anchor: middle" x="529.2" y="518.038312" transform="rotate(-0 529.2 518.038312)">已完成手数</text>
    </g>
   </g>
   <g id="matplotlib.axis_2">
    <g id="ytick_1">
     <g id="line2d_8">
      <path d="M 80.64 480.914526 
L 977.76 480.914526 
" clip-path="url(#p9fc2461b9a)" style="fill: none; stroke: #dfe5eb; stroke-width: 0.65; stroke-linecap: square"/>
     </g>
     <g id="line2d_9">
      <defs>
       <path id="ma6a0423c89" d="M 0 0 
L -3.5 0 
" style="stroke: #000000; stroke-width: 0.8"/>
      </defs>
      <g>
       <use xlink:href="#ma6a0423c89" x="80.64" y="480.914526" style="stroke: #000000; stroke-width: 0.8"/>
      </g>
     </g>
     <g id="text_9">
      <text style="font-size: 11px; font-family: 'Noto Sans CJK JP'; text-anchor: end" x="73.64" y="485.292183" transform="rotate(-0 73.64 485.292183)">0</text>
     </g>
    </g>
    <g id="ytick_2">
     <g id="line2d_10">
      <path d="M 80.64 438.598737 
L 977.76 438.598737 
" clip-path="url(#p9fc2461b9a)" style="fill: none; stroke: #dfe5eb; stroke-width: 0.65; stroke-linecap: square"/>
     </g>
     <g id="line2d_11">
      <g>
       <use xlink:href="#ma6a0423c89" x="80.64" y="438.598737" style="stroke: #000000; stroke-width: 0.8"/>
      </g>
     </g>
     <g id="text_10">
      <text style="font-size: 11px; font-family: 'Noto Sans CJK JP'; text-anchor: end" x="73.64" y="442.976393" transform="rotate(-0 73.64 442.976393)">2,000</text>
     </g>
    </g>
    <g id="ytick_3">
     <g id="line2d_12">
      <path d="M 80.64 396.282947 
L 977.76 396.282947 
" clip-path="url(#p9fc2461b9a)" style="fill: none; stroke: #dfe5eb; stroke-width: 0.65; stroke-linecap: square"/>
     </g>
     <g id="line2d_13">
      <g>
       <use xlink:href="#ma6a0423c89" x="80.64" y="396.282947" style="stroke: #000000; stroke-width: 0.8"/>
      </g>
     </g>
     <g id="text_11">
      <text style="font-size: 11px; font-family: 'Noto Sans CJK JP'; text-anchor: end" x="73.64" y="400.660604" transform="rotate(-0 73.64 400.660604)">4,000</text>
     </g>
    </g>
    <g id="ytick_4">
     <g id="line2d_14">
      <path d="M 80.64 353.967158 
L 977.76 353.967158 
" clip-path="url(#p9fc2461b9a)" style="fill: none; stroke: #dfe5eb; stroke-width: 0.65; stroke-linecap: square"/>
     </g>
     <g id="line2d_15">
      <g>
       <use xlink:href="#ma6a0423c89" x="80.64" y="353.967158" style="stroke: #000000; stroke-width: 0.8"/>
      </g>
     </g>
     <g id="text_12">
      <text style="font-size: 11px; font-family: 'Noto Sans CJK JP'; text-anchor: end" x="73.64" y="358.344814" transform="rotate(-0 73.64 358.344814)">6,000</text>
     </g>
    </g>
    <g id="ytick_5">
     <g id="line2d_16">
      <path d="M 80.64 311.651368 
L 977.76 311.651368 
" clip-path="url(#p9fc2461b9a)" style="fill: none; stroke: #dfe5eb; stroke-width: 0.65; stroke-linecap: square"/>
     </g>
     <g id="line2d_17">
      <g>
       <use xlink:href="#ma6a0423c89" x="80.64" y="311.651368" style="stroke: #000000; stroke-width: 0.8"/>
      </g>
     </g>
     <g id="text_13">
      <text style="font-size: 11px; font-family: 'Noto Sans CJK JP'; text-anchor: end" x="73.64" y="316.029025" transform="rotate(-0 73.64 316.029025)">8,000</text>
     </g>
    </g>
    <g id="ytick_6">
     <g id="line2d_18">
      <path d="M 80.64 269.335579 
L 977.76 269.335579 
" clip-path="url(#p9fc2461b9a)" style="fill: none; stroke: #dfe5eb; stroke-width: 0.65; stroke-linecap: square"/>
     </g>
     <g id="line2d_19">
      <g>
       <use xlink:href="#ma6a0423c89" x="80.64" y="269.335579" style="stroke: #000000; stroke-width: 0.8"/>
      </g>
     </g>
     <g id="text_14">
      <text style="font-size: 11px; font-family: 'Noto Sans CJK JP'; text-anchor: end" x="73.64" y="273.713235" transform="rotate(-0 73.64 273.713235)">10,000</text>
     </g>
    </g>
    <g id="ytick_7">
     <g id="line2d_20">
      <path d="M 80.64 227.019789 
L 977.76 227.019789 
" clip-path="url(#p9fc2461b9a)" style="fill: none; stroke: #dfe5eb; stroke-width: 0.65; stroke-linecap: square"/>
     </g>
     <g id="line2d_21">
      <g>
       <use xlink:href="#ma6a0423c89" x="80.64" y="227.019789" style="stroke: #000000; stroke-width: 0.8"/>
      </g>
     </g>
     <g id="text_15">
      <text style="font-size: 11px; font-family: 'Noto Sans CJK JP'; text-anchor: end" x="73.64" y="231.397446" transform="rotate(-0 73.64 231.397446)">12,000</text>
     </g>
    </g>
    <g id="ytick_8">
     <g id="line2d_22">
      <path d="M 80.64 184.704 
L 977.76 184.704 
" clip-path="url(#p9fc2461b9a)" style="fill: none; stroke: #dfe5eb; stroke-width: 0.65; stroke-linecap: square"/>
     </g>
     <g id="line2d_23">
      <g>
       <use xlink:href="#ma6a0423c89" x="80.64" y="184.704" style="stroke: #000000; stroke-width: 0.8"/>
      </g>
     </g>
     <g id="text_16">
      <text style="font-size: 11px; font-family: 'Noto Sans CJK JP'; text-anchor: end" x="73.64" y="189.081656" transform="rotate(-0 73.64 189.081656)">14,000</text>
     </g>
    </g>
    <g id="ytick_9">
     <g id="line2d_24">
      <path d="M 80.64 142.388211 
L 977.76 142.388211 
" clip-path="url(#p9fc2461b9a)" style="fill: none; stroke: #dfe5eb; stroke-width: 0.65; stroke-linecap: square"/>
     </g>
     <g id="line2d_25">
      <g>
       <use xlink:href="#ma6a0423c89" x="80.64" y="142.388211" style="stroke: #000000; stroke-width: 0.8"/>
      </g>
     </g>
     <g id="text_17">
      <text style="font-size: 11px; font-family: 'Noto Sans CJK JP'; text-anchor: end" x="73.64" y="146.765867" transform="rotate(-0 73.64 146.765867)">16,000</text>
     </g>
    </g>
    <g id="text_18">
     <text style="font-size: 11px; font-family: 'Noto Sans CJK JP'; text-anchor: middle" x="33.537656" y="303.696" transform="rotate(-90 33.537656 303.696)">筹码</text>
    </g>
   </g>
   <g id="line2d_26">
    <path d="M 85.05931 438.598737 
L 88.5667 438.598737 
L 88.5667 438.810316 
L 95.581478 438.810316 
L 95.581478 395.648211 
L 99.088867 395.648211 
L 99.088867 397.764 
L 113.118424 397.764 
L 113.118424 398.187158 
L 116.625813 398.187158 
L 116.625813 404.534526 
L 123.640591 404.534526 
L 123.640591 406.227158 
L 127.14798 406.227158 
L 127.14798 406.650316 
L 134.162759 406.650316 
L 134.162759 407.073474 
L 137.670148 407.073474 
L 137.670148 408.342947 
L 141.177537 408.342947 
L 141.177537 407.708211 
L 144.684926 407.708211 
L 144.684926 408.131368 
L 148.192315 408.131368 
L 148.192315 407.073474 
L 151.699704 407.073474 
L 151.699704 413.420842 
L 155.207094 413.420842 
L 155.207094 413.844 
L 158.714483 413.844 
L 158.714483 413.420842 
L 162.221872 413.420842 
L 162.221872 412.786105 
L 165.729261 412.786105 
L 165.729261 413.209263 
L 169.23665 413.209263 
L 169.23665 412.574526 
L 172.744039 412.574526 
L 172.744039 412.997684 
L 176.251429 412.997684 
L 176.251429 415.536632 
L 179.758818 415.536632 
L 179.758818 412.574526 
L 183.266207 412.574526 
L 183.266207 414.690316 
L 186.773596 414.690316 
L 186.773596 412.574526 
L 190.280985 412.574526 
L 190.280985 412.997684 
L 193.788374 412.997684 
L 193.788374 403.265053 
L 197.295764 403.265053 
L 197.295764 406.015579 
L 200.803153 406.015579 
L 200.803153 330.693474 
L 204.310542 330.693474 
L 204.310542 331.539789 
L 207.817931 331.539789 
L 207.817931 330.905053 
L 211.32532 330.905053 
L 211.32532 332.597684 
L 214.832709 332.597684 
L 214.832709 338.521895 
L 218.340099 338.521895 
L 218.340099 337.252421 
L 221.847488 337.252421 
L 221.847488 336.406105 
L 228.862266 336.406105 
L 228.862266 337.252421 
L 232.369655 337.252421 
L 232.369655 340.955053 
L 235.877044 340.955053 
L 235.877044 339.474 
L 239.384433 339.474 
L 239.384433 338.204526 
L 242.891823 338.204526 
L 242.891823 338.416105 
L 249.906601 338.416105 
L 249.906601 339.685579 
L 253.41399 339.685579 
L 253.41399 348.296842 
L 256.921379 348.296842 
L 256.921379 389.554737 
L 260.428768 389.554737 
L 260.428768 389.766316 
L 263.936158 389.766316 
L 263.936158 388.073684 
L 267.443547 388.073684 
L 267.443547 402.037895 
L 270.950936 402.037895 
L 270.950936 401.403158 
L 274.458325 401.403158 
L 274.458325 401.826316 
L 277.965714 401.826316 
L 277.965714 398.652632 
L 281.473103 398.652632 
L 281.473103 408.385263 
L 284.980493 408.385263 
L 284.980493 409.654737 
L 288.487882 409.654737 
L 288.487882 408.596842 
L 291.995271 408.596842 
L 291.995271 410.289474 
L 295.50266 410.289474 
L 295.50266 411.135789 
L 299.010049 411.135789 
L 299.010049 415.367368 
L 302.517438 415.367368 
L 302.517438 417.377368 
L 306.024828 417.377368 
L 306.024828 418.223684 
L 309.532217 418.223684 
L 309.532217 418.646842 
L 313.039606 418.646842 
L 313.039606 423.301579 
L 316.546995 423.301579 
L 316.546995 480.914526 
L 968.921379 480.914526 
L 968.921379 480.914526 
" clip-path="url(#p9fc2461b9a)" style="fill: none; stroke: #2878b5; stroke-opacity: 0.95; stroke-width: 1.8; stroke-linecap: square"/>
   </g>
   <g id="line2d_27">
    <path d="M 85.05931 438.598737 
L 88.5667 438.598737 
L 88.5667 439.021895 
L 92.074089 439.021895 
L 92.074089 439.233474 
L 109.611034 439.233474 
L 109.611034 377.304316 
L 116.625813 377.304316 
L 116.625813 362.916947 
L 120.133202 362.916947 
L 120.133202 363.128526 
L 123.640591 363.128526 
L 123.640591 360.801158 
L 127.14798 360.801158 
L 127.14798 356.675368 
L 137.670148 356.675368 
L 137.670148 355.405895 
L 141.177537 355.405895 
L 141.177537 355.617474 
L 144.684926 355.617474 
L 144.684926 353.501684 
L 151.699704 353.501684 
L 151.699704 353.924842 
L 158.714483 353.924842 
L 158.714483 354.348 
L 162.221872 354.348 
L 162.221872 354.559579 
L 179.758818 354.559579 
L 179.758818 354.982737 
L 183.266207 354.982737 
L 183.266207 352.443789 
L 193.788374 352.443789 
L 193.788374 357.098526 
L 197.295764 357.098526 
L 197.295764 404.069053 
L 200.803153 404.069053 
L 200.803153 404.492211 
L 204.310542 404.492211 
L 204.310542 404.703789 
L 214.832709 404.703789 
L 214.832709 405.126947 
L 221.847488 405.126947 
L 221.847488 405.973263 
L 225.354877 405.973263 
L 225.354877 414.013263 
L 228.862266 414.013263 
L 228.862266 411.897474 
L 242.891823 411.897474 
L 242.891823 412.320632 
L 246.399212 412.320632 
L 246.399212 412.532211 
L 249.906601 412.532211 
L 249.906601 413.801684 
L 253.41399 413.801684 
L 253.41399 395.944421 
L 260.428768 395.944421 
L 260.428768 395.732842 
L 263.936158 395.732842 
L 263.936158 396.579158 
L 267.443547 396.579158 
L 267.443547 410.543368 
L 274.458325 410.543368 
L 274.458325 408.639158 
L 277.965714 408.639158 
L 277.965714 409.062316 
L 281.473103 409.062316 
L 281.473103 409.908632 
L 284.980493 409.908632 
L 284.980493 411.178105 
L 295.50266 411.178105 
L 295.50266 412.024421 
L 299.010049 412.024421 
L 299.010049 416.256 
L 302.517438 416.256 
L 302.517438 413.611263 
L 313.039606 413.611263 
L 313.039606 414.034421 
L 316.546995 414.034421 
L 316.546995 480.914526 
L 968.921379 480.914526 
L 968.921379 480.914526 
" clip-path="url(#p9fc2461b9a)" style="fill: none; stroke-dasharray: 6.66,2.88; stroke-dashoffset: 0; stroke: #f28e2b; stroke-opacity: 0.95; stroke-width: 1.8"/>
   </g>
   <g id="line2d_28">
    <path d="M 85.05931 438.598737 
L 88.5667 438.598737 
L 88.5667 441.560842 
L 92.074089 441.560842 
L 92.074089 443.676632 
L 95.581478 443.676632 
L 95.581478 443.888211 
L 99.088867 443.888211 
L 99.088867 459.545053 
L 106.103645 459.545053 
L 106.103645 433.944 
L 109.611034 433.944 
L 109.611034 453.557368 
L 113.118424 453.557368 
L 113.118424 446.575263 
L 120.133202 446.575263 
L 120.133202 446.363684 
L 123.640591 446.363684 
L 123.640591 446.575263 
L 127.14798 446.575263 
L 127.14798 449.643158 
L 134.162759 449.643158 
L 134.162759 449.008421 
L 141.177537 449.008421 
L 141.177537 449.431579 
L 144.684926 449.431579 
L 144.684926 450.701053 
L 148.192315 450.701053 
L 148.192315 451.124211 
L 151.699704 451.124211 
L 151.699704 451.547368 
L 155.207094 451.547368 
L 155.207094 444.565263 
L 162.221872 444.565263 
L 162.221872 444.988421 
L 165.729261 444.988421 
L 165.729261 445.411579 
L 172.744039 445.411579 
L 172.744039 448.373684 
L 179.758818 448.373684 
L 179.758818 449.643158 
L 183.266207 449.643158 
L 183.266207 450.066316 
L 186.773596 450.066316 
L 186.773596 450.912632 
L 190.280985 450.912632 
L 190.280985 451.335789 
L 204.310542 451.335789 
L 204.310542 450.277895 
L 207.817931 450.277895 
L 207.817931 450.489474 
L 225.354877 450.489474 
L 225.354877 458.529474 
L 228.862266 458.529474 
L 228.862266 459.375789 
L 232.369655 459.375789 
L 232.369655 455.038421 
L 235.877044 455.038421 
L 235.877044 455.461579 
L 242.891823 455.461579 
L 242.891823 436.207895 
L 246.399212 436.207895 
L 246.399212 435.996316 
L 249.906601 435.996316 
L 249.906601 433.034211 
L 253.41399 433.034211 
L 253.41399 441.645474 
L 263.936158 441.645474 
L 263.936158 442.491789 
L 267.443547 442.491789 
L 267.443547 414.140211 
L 274.458325 414.140211 
L 274.458325 415.409684 
L 277.965714 415.409684 
L 277.965714 418.160211 
L 281.473103 418.160211 
L 281.473103 407.581263 
L 284.980493 407.581263 
L 284.980493 404.619158 
L 291.995271 404.619158 
L 291.995271 402.714947 
L 299.010049 402.714947 
L 299.010049 394.251789 
L 302.517438 394.251789 
L 302.517438 394.463368 
L 316.546995 394.463368 
L 316.546995 269.970316 
L 323.561773 269.970316 
L 323.561773 269.547158 
L 327.069163 269.547158 
L 327.069163 269.124 
L 334.083941 269.124 
L 334.083941 268.700842 
L 337.59133 268.700842 
L 337.59133 271.028211 
L 341.098719 271.028211 
L 341.098719 265.421368 
L 344.606108 265.421368 
L 344.606108 265.844526 
L 348.113498 265.844526 
L 348.113498 266.056105 
L 355.128276 266.056105 
L 355.128276 266.479263 
L 358.635665 266.479263 
L 358.635665 266.056105 
L 362.143054 266.056105 
L 362.143054 274.138421 
L 365.650443 274.138421 
L 365.650443 274.561579 
L 369.157833 274.561579 
L 369.157833 274.773158 
L 372.665222 274.773158 
L 372.665222 275.196316 
L 376.172611 275.196316 
L 376.172611 275.619474 
L 379.68 275.619474 
L 379.68 275.196316 
L 390.202167 275.196316 
L 390.202167 274.773158 
L 393.709557 274.773158 
L 393.709557 275.196316 
L 397.216946 275.196316 
L 397.216946 274.773158 
L 400.724335 274.773158 
L 400.724335 274.35 
L 404.231724 274.35 
L 404.231724 272.868947 
L 407.739113 272.868947 
L 407.739113 272.445789 
L 411.246502 272.445789 
L 411.246502 272.657368 
L 414.753892 272.657368 
L 414.753892 272.022632 
L 418.261281 272.022632 
L 418.261281 270.753158 
L 421.76867 270.753158 
L 421.76867 271.176316 
L 425.276059 271.176316 
L 425.276059 270.541579 
L 428.783448 270.541579 
L 428.783448 270.964737 
L 432.290837 270.964737 
L 432.290837 270.541579 
L 439.305616 270.541579 
L 439.305616 270.964737 
L 442.813005 270.964737 
L 442.813005 271.176316 
L 449.827783 271.176316 
L 449.827783 271.599474 
L 453.335172 271.599474 
L 453.335172 271.811053 
L 456.842562 271.811053 
L 456.842562 273.080526 
L 460.349951 273.080526 
L 460.349951 273.503684 
L 463.85734 273.503684 
L 463.85734 273.080526 
L 467.364729 273.080526 
L 467.364729 271.599474 
L 470.872118 271.599474 
L 470.872118 270.33 
L 474.379507 270.33 
L 474.379507 270.541579 
L 481.394286 270.541579 
L 481.394286 270.964737 
L 484.901675 270.964737 
L 484.901675 270.541579 
L 491.916453 270.541579 
L 491.916453 270.118421 
L 495.423842 270.118421 
L 495.423842 271.811053 
L 498.931232 271.811053 
L 498.931232 271.176316 
L 502.438621 271.176316 
L 502.438621 270.753158 
L 505.94601 270.753158 
L 505.94601 270.33 
L 509.453399 270.33 
L 509.453399 269.695263 
L 512.960788 269.695263 
L 512.960788 269.272105 
L 516.468177 269.272105 
L 516.468177 268.848947 
L 523.482956 268.848947 
L 523.482956 268.425789 
L 526.990345 268.425789 
L 526.990345 268.002632 
L 534.005123 268.002632 
L 534.005123 275.936842 
L 537.512512 275.936842 
L 537.512512 274.244211 
L 544.527291 274.244211 
L 544.527291 273.397895 
L 548.03468 273.397895 
L 548.03468 273.821053 
L 551.542069 273.821053 
L 551.542069 275.090526 
L 555.049458 275.090526 
L 555.049458 372.882316 
L 558.556847 372.882316 
L 558.556847 372.459158 
L 565.571626 372.459158 
L 565.571626 372.882316 
L 569.079015 372.882316 
L 569.079015 372.459158 
L 572.586404 372.459158 
L 572.586404 369.602842 
L 576.093793 369.602842 
L 576.093793 376.204105 
L 579.601182 376.204105 
L 579.601182 376.415684 
L 586.615961 376.309895 
L 586.615961 375.886737 
L 590.12335 375.886737 
L 590.12335 376.309895 
L 597.138128 376.309895 
L 597.138128 377.579368 
L 600.645517 377.579368 
L 600.645517 378.002526 
L 607.660296 378.002526 
L 607.660296 378.425684 
L 611.167685 378.425684 
L 611.167685 381.387789 
L 614.675074 381.387789 
L 614.675074 378.531474 
L 618.182463 378.531474 
L 618.182463 378.108316 
L 621.689852 378.108316 
L 621.689852 378.319895 
L 628.704631 378.319895 
L 628.704631 378.743053 
L 632.21202 378.743053 
L 632.21202 378.319895 
L 639.226798 378.319895 
L 639.226798 377.896737 
L 642.734187 377.896737 
L 642.734187 378.108316 
L 649.748966 378.108316 
L 649.748966 373.665158 
L 653.256355 373.665158 
L 653.256355 373.876737 
L 656.763744 373.876737 
L 656.763744 372.395684 
L 660.271133 372.395684 
L 660.271133 371.972526 
L 663.778522 371.972526 
L 663.778522 372.184105 
L 667.285911 372.184105 
L 667.285911 370.703053 
L 670.7933 370.703053 
L 670.7933 370.279895 
L 674.30069 370.279895 
L 674.30069 480.914526 
L 968.921379 480.914526 
L 968.921379 480.914526 
" clip-path="url(#p9fc2461b9a)" style="fill: none; stroke-dasharray: 11.52,2.88,1.8,2.88; stroke-dashoffset: 0; stroke: #35a16b; stroke-opacity: 0.95; stroke-width: 1.8"/>
   </g>
   <g id="line2d_29">
    <path d="M 85.05931 438.598737 
L 95.581478 438.598737 
L 95.581478 439.021895 
L 99.088867 439.021895 
L 99.088867 439.233474 
L 123.640591 439.233474 
L 123.640591 439.656632 
L 127.14798 439.656632 
L 127.14798 439.868211 
L 144.684926 439.868211 
L 144.684926 440.291368 
L 148.192315 440.291368 
L 148.192315 440.502947 
L 165.729261 440.502947 
L 165.729261 439.656632 
L 169.23665 439.656632 
L 169.23665 439.868211 
L 176.251429 439.868211 
L 176.251429 437.117684 
L 186.773596 437.117684 
L 186.773596 438.387158 
L 190.280985 438.387158 
L 190.280985 438.598737 
L 207.817931 438.598737 
L 207.817931 439.021895 
L 211.32532 439.021895 
L 211.32532 439.233474 
L 228.862266 439.233474 
L 228.862266 439.656632 
L 232.369655 439.656632 
L 232.369655 439.868211 
L 249.906601 439.868211 
L 249.906601 440.291368 
L 253.41399 440.291368 
L 253.41399 440.502947 
L 267.443547 440.502947 
L 267.443547 440.926105 
L 270.950936 440.926105 
L 270.950936 441.137684 
L 284.980493 441.137684 
L 284.980493 441.560842 
L 288.487882 441.560842 
L 288.487882 441.772421 
L 295.50266 441.772421 
L 295.50266 440.079789 
L 302.517438 440.079789 
L 302.517438 440.502947 
L 306.024828 440.502947 
L 306.024828 440.714526 
L 320.054384 440.714526 
L 320.054384 440.926105 
L 327.069163 440.926105 
L 327.069163 441.349263 
L 330.576552 441.349263 
L 330.576552 441.560842 
L 337.59133 441.560842 
L 337.59133 438.810316 
L 341.098719 438.810316 
L 341.098719 439.021895 
L 348.113498 439.021895 
L 348.113498 439.445053 
L 351.620887 439.445053 
L 351.620887 439.656632 
L 358.635665 439.656632 
L 358.635665 440.079789 
L 362.143054 440.079789 
L 362.143054 440.291368 
L 369.157833 440.291368 
L 369.157833 440.079789 
L 372.665222 440.079789 
L 372.665222 440.291368 
L 379.68 440.291368 
L 379.68 440.714526 
L 383.187389 440.714526 
L 383.187389 440.926105 
L 390.202167 440.926105 
L 390.202167 441.349263 
L 393.709557 441.349263 
L 393.709557 441.560842 
L 400.724335 441.560842 
L 400.724335 441.984 
L 404.231724 441.984 
L 404.231724 442.195579 
L 411.246502 442.195579 
L 411.246502 441.984 
L 414.753892 441.984 
L 414.753892 442.195579 
L 421.76867 442.195579 
L 421.76867 441.772421 
L 425.276059 441.772421 
L 425.276059 441.984 
L 432.290837 441.984 
L 432.290837 442.407158 
L 435.798227 442.407158 
L 435.798227 442.618737 
L 442.813005 442.618737 
L 442.813005 442.407158 
L 446.320394 442.407158 
L 446.320394 442.618737 
L 449.827783 442.618737 
L 449.827783 443.041895 
L 453.335172 443.041895 
L 453.335172 442.830316 
L 456.842562 442.830316 
L 456.842562 443.041895 
L 463.85734 443.041895 
L 463.85734 443.465053 
L 467.364729 443.465053 
L 467.364729 443.676632 
L 474.379507 443.676632 
L 474.379507 443.465053 
L 477.886897 443.465053 
L 477.886897 443.676632 
L 484.901675 443.676632 
L 484.901675 444.099789 
L 488.409064 444.099789 
L 488.409064 444.311368 
L 495.423842 444.311368 
L 495.423842 442.618737 
L 498.931232 442.618737 
L 498.931232 442.830316 
L 505.94601 442.830316 
L 505.94601 443.253474 
L 509.453399 443.253474 
L 509.453399 443.465053 
L 516.468177 443.465053 
L 516.468177 443.888211 
L 519.975567 443.888211 
L 519.975567 444.099789 
L 526.990345 444.099789 
L 526.990345 444.522947 
L 530.497734 444.522947 
L 530.497734 444.734526 
L 537.512512 444.734526 
L 537.512512 445.157684 
L 541.019901 445.157684 
L 541.019901 445.369263 
L 548.03468 445.369263 
L 548.03468 445.792421 
L 551.542069 445.792421 
L 551.542069 446.004 
L 558.556847 446.004 
L 558.556847 446.427158 
L 562.064236 446.427158 
L 562.064236 446.638737 
L 569.079015 446.638737 
L 569.079015 447.061895 
L 572.586404 447.061895 
L 572.586404 447.273474 
L 579.601182 447.273474 
L 579.601182 447.061895 
L 583.108571 447.061895 
L 583.108571 447.273474 
L 590.12335 447.273474 
L 590.12335 446.850316 
L 593.630739 446.850316 
L 593.630739 447.061895 
L 597.138128 447.061895 
L 597.138128 448.331368 
L 600.645517 448.331368 
L 600.645517 447.908211 
L 604.152906 447.908211 
L 604.152906 448.119789 
L 611.167685 448.119789 
L 611.167685 448.542947 
L 614.675074 448.542947 
L 614.675074 448.754526 
L 621.689852 448.754526 
L 621.689852 448.542947 
L 625.197241 448.542947 
L 625.197241 448.754526 
L 632.21202 448.754526 
L 632.21202 449.177684 
L 635.719409 449.177684 
L 635.719409 449.389263 
L 642.734187 449.389263 
L 642.734187 449.177684 
L 646.241576 449.177684 
L 646.241576 449.389263 
L 649.748966 449.389263 
L 649.748966 450.658737 
L 653.256355 450.658737 
L 653.256355 450.447158 
L 656.763744 450.447158 
L 656.763744 450.658737 
L 663.778522 450.658737 
L 663.778522 450.447158 
L 667.285911 450.447158 
L 667.285911 450.658737 
L 674.30069 450.658737 
L 674.30069 451.081895 
L 677.808079 451.081895 
L 677.808079 451.293474 
L 681.315468 451.293474 
L 681.315468 451.716632 
L 684.822857 451.716632 
L 684.822857 451.928211 
L 688.330246 451.928211 
L 688.330246 451.505053 
L 691.837635 451.505053 
L 691.837635 451.716632 
L 695.345025 451.716632 
L 695.345025 452.139789 
L 698.852414 452.139789 
L 698.852414 452.351368 
L 702.359803 452.351368 
L 702.359803 451.928211 
L 705.867192 451.928211 
L 705.867192 452.139789 
L 709.374581 452.139789 
L 709.374581 452.562947 
L 712.88197 452.562947 
L 712.88197 459.756632 
L 716.38936 459.756632 
L 716.38936 460.179789 
L 719.896749 460.179789 
L 719.896749 459.333474 
L 723.404138 459.333474 
L 723.404138 458.910316 
L 726.911527 458.910316 
L 726.911527 459.121895 
L 730.418916 459.121895 
L 730.418916 459.545053 
L 733.926305 459.545053 
L 733.926305 459.756632 
L 737.433695 459.756632 
L 737.433695 460.814526 
L 740.941084 460.814526 
L 740.941084 461.026105 
L 744.448473 461.026105 
L 744.448473 460.602947 
L 747.955862 460.602947 
L 747.955862 467.204211 
L 751.463251 467.204211 
L 751.463251 466.781053 
L 754.97064 466.781053 
L 754.97064 466.992632 
L 758.47803 466.992632 
L 758.47803 467.838947 
L 761.985419 467.838947 
L 761.985419 468.050526 
L 765.492808 468.050526 
L 765.492808 468.473684 
L 769.000197 468.473684 
L 769.000197 468.685263 
L 772.507586 468.685263 
L 772.507586 469.108421 
L 776.014975 469.108421 
L 776.014975 469.32 
L 779.522365 469.32 
L 779.522365 470.377895 
L 783.029754 470.377895 
L 783.029754 470.589474 
L 786.537143 470.589474 
L 786.537143 471.012632 
L 790.044532 471.012632 
L 790.044532 471.224211 
L 793.551921 471.224211 
L 793.551921 471.647368 
L 797.05931 471.647368 
L 797.05931 471.858947 
L 800.5667 471.858947 
L 800.5667 472.282105 
L 804.074089 472.282105 
L 804.074089 472.493684 
L 807.581478 472.493684 
L 807.581478 472.916842 
L 811.088867 472.916842 
L 811.088867 473.128421 
L 814.596256 473.128421 
L 814.596256 472.705263 
L 818.103645 472.705263 
L 818.103645 472.916842 
L 821.611034 472.916842 
L 821.611034 473.34 
L 825.118424 473.34 
L 825.118424 473.551579 
L 828.625813 473.551579 
L 828.625813 473.128421 
L 832.133202 473.128421 
L 832.133202 473.34 
L 835.640591 473.34 
L 835.640591 473.763158 
L 839.14798 473.763158 
L 839.14798 473.974737 
L 842.655369 473.974737 
L 842.655369 473.551579 
L 846.162759 473.551579 
L 846.162759 473.763158 
L 849.670148 473.763158 
L 849.670148 473.551579 
L 853.177537 473.551579 
L 853.177537 473.763158 
L 856.684926 473.763158 
L 856.684926 473.34 
L 860.192315 473.34 
L 860.192315 473.551579 
L 863.699704 473.551579 
L 863.699704 473.128421 
L 867.207094 473.128421 
L 867.207094 473.34 
L 870.714483 473.34 
L 870.714483 473.763158 
L 874.221872 473.763158 
L 874.221872 473.974737 
L 877.729261 473.974737 
L 877.729261 474.397895 
L 881.23665 474.397895 
L 881.23665 474.609474 
L 884.744039 474.609474 
L 884.744039 475.032632 
L 888.251429 475.032632 
L 888.251429 475.244211 
L 891.758818 475.244211 
L 891.758818 474.821053 
L 895.266207 474.821053 
L 895.266207 475.032632 
L 898.773596 475.032632 
L 898.773596 475.455789 
L 902.280985 475.455789 
L 902.280985 475.667368 
L 905.788374 475.667368 
L 905.788374 478.312105 
L 909.295764 478.312105 
L 909.295764 478.523684 
L 912.803153 478.523684 
L 912.803153 478.100526 
L 916.310542 478.100526 
L 916.310542 478.312105 
L 919.817931 478.312105 
L 919.817931 477.888947 
L 923.32532 477.888947 
L 923.32532 478.100526 
L 926.832709 478.100526 
L 926.832709 478.523684 
L 930.340099 478.523684 
L 930.340099 478.735263 
L 933.847488 478.735263 
L 933.847488 479.158421 
L 937.354877 479.158421 
L 937.354877 479.37 
L 940.862266 479.37 
L 940.862266 478.946842 
L 944.369655 478.946842 
L 944.369655 479.158421 
L 947.877044 479.158421 
L 947.877044 479.581579 
L 951.384433 479.581579 
L 951.384433 479.793158 
L 954.891823 479.793158 
L 954.891823 480.216316 
L 958.399212 480.216316 
L 958.399212 480.427895 
L 965.41399 480.427895 
L 965.41399 480.639474 
L 968.921379 480.639474 
L 968.921379 480.914526 
L 968.921379 480.914526 
" clip-path="url(#p9fc2461b9a)" style="fill: none; stroke-dasharray: 1.8,2.97; stroke-dashoffset: 0; stroke: #d1495b; stroke-opacity: 0.95; stroke-width: 1.8"/>
   </g>
   <g id="line2d_30">
    <path d="M 85.05931 438.598737 
L 88.5667 438.598737 
L 88.5667 479.645053 
L 92.074089 479.645053 
L 92.074089 480.068211 
L 95.581478 480.068211 
L 95.581478 480.491368 
L 99.088867 480.491368 
L 99.088867 479.010316 
L 102.596256 479.010316 
L 102.596256 477.106105 
L 106.103645 477.106105 
L 106.103645 479.221895 
L 116.625813 479.221895 
L 116.625813 480.914526 
L 968.921379 480.914526 
L 968.921379 480.914526 
" clip-path="url(#p9fc2461b9a)" style="fill: none; stroke: #8f63b8; stroke-opacity: 0.95; stroke-width: 1.8; stroke-linecap: square"/>
   </g>
   <g id="line2d_31">
    <path d="M 85.05931 438.598737 
L 88.5667 438.598737 
L 88.5667 393.955579 
L 92.074089 393.955579 
L 92.074089 389.089263 
L 95.581478 389.089263 
L 95.581478 431.193474 
L 99.088867 431.193474 
L 99.088867 414.690316 
L 102.596256 414.690316 
L 102.596256 416.594526 
L 106.103645 416.594526 
L 106.103645 437.964 
L 109.611034 437.964 
L 109.611034 479.645053 
L 113.118424 479.645053 
L 113.118424 480.914526 
L 968.921379 480.914526 
L 968.921379 480.914526 
" clip-path="url(#p9fc2461b9a)" style="fill: none; stroke-dasharray: 6.66,2.88; stroke-dashoffset: 0; stroke: #8c6d31; stroke-opacity: 0.95; stroke-width: 1.8"/>
   </g>
   <g id="line2d_32">
    <path d="M 85.05931 438.598737 
L 92.074089 438.598737 
L 92.074089 440.714526 
L 106.103645 440.714526 
L 106.103645 442.830316 
L 109.611034 442.830316 
L 109.611034 443.041895 
L 113.118424 443.041895 
L 113.118424 447.061895 
L 116.625813 447.061895 
L 116.625813 453.409263 
L 127.14798 453.409263 
L 127.14798 453.832421 
L 130.655369 453.832421 
L 130.655369 454.255579 
L 148.192315 454.255579 
L 148.192315 454.678737 
L 151.699704 454.678737 
L 151.699704 454.890316 
L 155.207094 454.890316 
L 155.207094 461.237684 
L 169.23665 461.237684 
L 169.23665 461.660842 
L 172.744039 461.660842 
L 172.744039 457.852421 
L 179.758818 457.852421 
L 179.758818 459.121895 
L 190.280985 459.121895 
L 190.280985 458.064 
L 193.788374 458.064 
L 193.788374 462.718737 
L 211.32532 462.718737 
L 211.32532 460.814526 
L 214.832709 460.814526 
L 214.832709 461.237684 
L 232.369655 461.237684 
L 232.369655 461.660842 
L 235.877044 461.660842 
L 235.877044 461.872421 
L 239.384433 461.872421 
L 239.384433 462.295579 
L 242.891823 462.295579 
L 242.891823 480.914526 
L 968.921379 480.914526 
L 968.921379 480.914526 
" clip-path="url(#p9fc2461b9a)" style="fill: none; stroke-dasharray: 11.52,2.88,1.8,2.88; stroke-dashoffset: 0; stroke: #159b9c; stroke-opacity: 0.95; stroke-width: 1.8"/>
   </g>
   <g id="line2d_33">
    <path d="M 85.05931 438.598737 
L 109.611034 438.598737 
L 109.611034 439.021895 
L 113.118424 439.021895 
L 113.118424 440.291368 
L 130.655369 440.291368 
L 130.655369 439.868211 
L 134.162759 439.868211 
L 134.162759 440.079789 
L 151.699704 440.079789 
L 151.699704 432.674526 
L 155.207094 432.674526 
L 155.207094 432.886105 
L 172.744039 432.886105 
L 172.744039 433.309263 
L 176.251429 433.309263 
L 176.251429 433.520842 
L 193.788374 433.520842 
L 193.788374 433.944 
L 197.295764 433.944 
L 197.295764 384.222947 
L 200.803153 384.222947 
L 200.803153 459.121895 
L 214.832709 459.121895 
L 214.832709 452.351368 
L 218.340099 452.351368 
L 218.340099 453.620842 
L 225.354877 453.620842 
L 225.354877 437.540842 
L 235.877044 437.540842 
L 235.877044 438.387158 
L 239.384433 438.387158 
L 239.384433 439.233474 
L 253.41399 439.233474 
L 253.41399 439.656632 
L 256.921379 439.656632 
L 256.921379 398.398737 
L 270.950936 398.398737 
L 270.950936 398.821895 
L 274.458325 398.821895 
L 274.458325 399.033474 
L 288.487882 399.033474 
L 288.487882 399.879789 
L 291.995271 399.879789 
L 291.995271 400.091368 
L 306.024828 400.091368 
L 306.024828 399.033474 
L 309.532217 399.033474 
L 309.532217 398.610316 
L 313.039606 398.610316 
L 313.039606 393.532421 
L 320.054384 393.532421 
L 320.054384 393.320842 
L 323.561773 393.320842 
L 323.561773 393.744 
L 330.576552 393.744 
L 330.576552 393.532421 
L 334.083941 393.532421 
L 334.083941 393.955579 
L 337.59133 393.955579 
L 337.59133 394.378737 
L 341.098719 394.378737 
L 341.098719 399.774 
L 344.606108 399.774 
L 344.606108 399.350842 
L 348.113498 399.350842 
L 348.113498 398.716105 
L 351.620887 398.716105 
L 351.620887 398.504526 
L 355.128276 398.504526 
L 355.128276 398.081368 
L 362.143054 398.081368 
L 362.143054 389.787474 
L 365.650443 389.787474 
L 365.650443 389.364316 
L 372.665222 389.364316 
L 372.665222 388.729579 
L 376.172611 388.729579 
L 376.172611 388.306421 
L 383.187389 388.306421 
L 383.187389 388.094842 
L 393.709557 388.094842 
L 393.709557 387.460105 
L 397.216946 387.460105 
L 397.216946 387.883263 
L 404.231724 387.883263 
L 404.231724 389.152737 
L 407.739113 389.152737 
L 407.739113 389.575895 
L 414.753892 389.575895 
L 414.753892 389.999053 
L 418.261281 389.999053 
L 418.261281 391.268526 
L 425.276059 391.268526 
L 425.276059 391.691684 
L 428.783448 391.691684 
L 428.783448 391.268526 
L 435.798227 391.268526 
L 435.798227 391.056947 
L 439.305616 391.056947 
L 439.305616 390.633789 
L 446.320394 390.633789 
L 446.320394 390.422211 
L 449.827783 390.422211 
L 449.827783 389.575895 
L 456.842562 389.575895 
L 456.842562 388.094842 
L 460.349951 388.094842 
L 460.349951 387.671684 
L 467.364729 387.671684 
L 467.364729 388.941158 
L 470.872118 388.941158 
L 470.872118 390.210632 
L 477.886897 390.210632 
L 477.886897 389.999053 
L 481.394286 389.999053 
L 481.394286 389.575895 
L 488.409064 389.575895 
L 488.409064 389.364316 
L 491.916453 389.364316 
L 491.916453 389.787474 
L 498.931232 389.787474 
L 498.931232 390.210632 
L 502.438621 390.210632 
L 502.438621 390.633789 
L 509.453399 390.633789 
L 509.453399 391.056947 
L 512.960788 391.056947 
L 512.960788 391.480105 
L 519.975567 391.480105 
L 519.975567 391.268526 
L 523.482956 391.268526 
L 523.482956 391.691684 
L 530.497734 391.691684 
L 530.497734 391.480105 
L 534.005123 391.480105 
L 534.005123 383.545895 
L 537.512512 383.545895 
L 537.512512 384.815368 
L 541.019901 384.815368 
L 541.019901 384.603789 
L 544.527291 384.603789 
L 544.527291 385.450105 
L 548.03468 385.450105 
L 548.03468 384.603789 
L 551.542069 384.603789 
L 551.542069 383.122737 
L 555.049458 383.122737 
L 555.049458 285.330947 
L 562.064236 285.330947 
L 562.064236 285.119368 
L 565.571626 285.119368 
L 565.571626 284.696211 
L 572.586404 284.696211 
L 572.586404 287.340947 
L 576.093793 287.340947 
L 576.093793 280.739684 
L 586.615961 280.633895 
L 586.615961 281.057053 
L 593.630739 281.057053 
L 593.630739 280.845474 
L 597.138128 280.845474 
L 597.138128 278.306526 
L 604.152906 278.306526 
L 604.152906 278.094947 
L 607.660296 278.094947 
L 607.660296 277.671789 
L 611.167685 277.671789 
L 611.167685 274.286526 
L 614.675074 274.286526 
L 614.675074 276.931263 
L 618.182463 276.931263 
L 618.182463 277.354421 
L 625.197241 277.354421 
L 625.197241 277.142842 
L 628.704631 277.142842 
L 628.704631 276.719684 
L 635.719409 276.719684 
L 635.719409 276.508105 
L 639.226798 276.508105 
L 639.226798 276.931263 
L 646.241576 276.931263 
L 646.241576 276.719684 
L 649.748966 276.719684 
L 649.748966 279.893368 
L 656.763744 279.893368 
L 656.763744 281.162842 
L 660.271133 281.162842 
L 660.271133 281.586 
L 667.285911 281.586 
L 667.285911 282.855474 
L 670.7933 282.855474 
L 670.7933 283.278632 
L 674.30069 283.278632 
L 674.30069 172.220842 
L 677.808079 172.220842 
L 677.808079 172.009263 
L 681.315468 172.009263 
L 681.315468 171.586105 
L 684.822857 171.586105 
L 684.822857 171.374526 
L 688.330246 171.374526 
L 688.330246 171.797684 
L 691.837635 171.797684 
L 691.837635 171.586105 
L 695.345025 171.586105 
L 695.345025 171.162947 
L 698.852414 171.162947 
L 698.852414 170.951368 
L 702.359803 170.951368 
L 702.359803 171.374526 
L 705.867192 171.374526 
L 705.867192 171.162947 
L 709.374581 171.162947 
L 709.374581 170.739789 
L 712.88197 170.739789 
L 712.88197 163.546105 
L 716.38936 163.546105 
L 716.38936 163.122947 
L 719.896749 163.122947 
L 719.896749 163.969263 
L 723.404138 163.969263 
L 723.404138 164.392421 
L 726.911527 164.392421 
L 726.911527 164.180842 
L 730.418916 164.180842 
L 730.418916 163.757684 
L 733.926305 163.757684 
L 733.926305 163.546105 
L 737.433695 163.546105 
L 737.433695 162.488211 
L 740.941084 162.488211 
L 740.941084 162.276632 
L 744.448473 162.276632 
L 744.448473 162.699789 
L 747.955862 162.699789 
L 747.955862 156.098526 
L 751.463251 156.098526 
L 751.463251 156.521684 
L 754.97064 156.521684 
L 754.97064 156.310105 
L 758.47803 156.310105 
L 758.47803 155.463789 
L 761.985419 155.463789 
L 761.985419 155.252211 
L 765.492808 155.252211 
L 765.492808 154.829053 
L 769.000197 154.829053 
L 769.000197 154.617474 
L 772.507586 154.617474 
L 772.507586 154.194316 
L 776.014975 154.194316 
L 776.014975 153.982737 
L 779.522365 153.982737 
L 779.522365 152.924842 
L 783.029754 152.924842 
L 783.029754 152.713263 
L 786.537143 152.713263 
L 786.537143 152.290105 
L 790.044532 152.290105 
L 790.044532 152.078526 
L 793.551921 152.078526 
L 793.551921 151.655368 
L 797.05931 151.655368 
L 797.05931 151.443789 
L 800.5667 151.443789 
L 800.5667 151.020632 
L 804.074089 151.020632 
L 804.074089 150.809053 
L 807.581478 150.809053 
L 807.581478 150.385895 
L 811.088867 150.385895 
L 811.088867 150.174316 
L 814.596256 150.174316 
L 814.596256 150.597474 
L 818.103645 150.597474 
L 818.103645 150.385895 
L 821.611034 150.385895 
L 821.611034 149.962737 
L 825.118424 149.962737 
L 825.118424 149.751158 
L 828.625813 149.751158 
L 828.625813 150.174316 
L 832.133202 150.174316 
L 832.133202 149.962737 
L 835.640591 149.962737 
L 835.640591 149.539579 
L 839.14798 149.539579 
L 839.14798 149.328 
L 842.655369 149.328 
L 842.655369 149.751158 
L 846.162759 149.751158 
L 846.162759 149.539579 
L 849.670148 149.539579 
L 849.670148 149.751158 
L 853.177537 149.751158 
L 853.177537 149.539579 
L 856.684926 149.539579 
L 856.684926 149.962737 
L 860.192315 149.962737 
L 860.192315 149.751158 
L 863.699704 149.751158 
L 863.699704 150.174316 
L 867.207094 150.174316 
L 867.207094 149.962737 
L 870.714483 149.962737 
L 870.714483 149.539579 
L 874.221872 149.539579 
L 874.221872 149.328 
L 877.729261 149.328 
L 877.729261 148.904842 
L 881.23665 148.904842 
L 881.23665 148.693263 
L 884.744039 148.693263 
L 884.744039 148.270105 
L 888.251429 148.270105 
L 888.251429 148.058526 
L 891.758818 148.058526 
L 891.758818 148.481684 
L 895.266207 148.481684 
L 895.266207 148.270105 
L 898.773596 148.270105 
L 898.773596 147.846947 
L 902.280985 147.846947 
L 902.280985 147.635368 
L 905.788374 147.635368 
L 905.788374 144.990632 
L 909.295764 144.990632 
L 909.295764 144.779053 
L 912.803153 144.779053 
L 912.803153 145.202211 
L 916.310542 145.202211 
L 916.310542 144.990632 
L 919.817931 144.990632 
L 919.817931 145.413789 
L 923.32532 145.413789 
L 923.32532 145.202211 
L 926.832709 145.202211 
L 926.832709 144.779053 
L 930.340099 144.779053 
L 930.340099 144.567474 
L 933.847488 144.567474 
L 933.847488 144.144316 
L 937.354877 144.144316 
L 937.354877 143.932737 
L 940.862266 143.932737 
L 940.862266 144.355895 
L 944.369655 144.355895 
L 944.369655 144.144316 
L 947.877044 144.144316 
L 947.877044 143.721158 
L 951.384433 143.721158 
L 951.384433 143.509579 
L 954.891823 143.509579 
L 954.891823 143.086421 
L 958.399212 143.086421 
L 958.399212 142.874842 
L 965.41399 142.874842 
L 965.41399 142.663263 
L 968.921379 142.663263 
L 968.921379 142.388211 
L 968.921379 142.388211 
" clip-path="url(#p9fc2461b9a)" style="fill: none; stroke-dasharray: 1.8,2.97; stroke-dashoffset: 0; stroke: #d85c9e; stroke-opacity: 0.95; stroke-width: 1.8"/>
   </g>
   <g id="patch_3">
    <path d="M 80.64 487.008 
L 80.64 120.384 
" style="fill: none; stroke: #b0b8c1; stroke-width: 0.8; stroke-linejoin: miter; stroke-linecap: square"/>
   </g>
   <g id="patch_4">
    <path d="M 80.64 487.008 
L 977.76 487.008 
" style="fill: none; stroke: #b0b8c1; stroke-width: 0.8; stroke-linejoin: miter; stroke-linecap: square"/>
   </g>
   <g id="text_19">
    <text style="font-size: 12px; font-family: 'Noto Sans CJK JP'; text-anchor: end; fill: #222d38" x="956.921379" y="167.388211" transform="rotate(-0 956.921379 167.388211)">equity  16,000</text>
   </g>
   <g id="PathCollection_1">
    <defs>
     <path id="m009dfecdbd" d="M -3.354102 3.354102 
L 3.354102 -3.354102 
M -3.354102 -3.354102 
L 3.354102 3.354102 
" style="stroke: #2878b5; stroke-width: 1.5"/>
    </defs>
    <g clip-path="url(#p9fc2461b9a)">
     <use xlink:href="#m009dfecdbd" x="316.546995" y="480.914526" style="fill: #2878b5; stroke: #2878b5; stroke-width: 1.5"/>
    </g>
   </g>
   <g id="PathCollection_2">
    <defs>
     <path id="mcd6139f372" d="M -3.354102 3.354102 
L 3.354102 -3.354102 
M -3.354102 -3.354102 
L 3.354102 3.354102 
" style="stroke: #f28e2b; stroke-width: 1.5"/>
    </defs>
    <g clip-path="url(#p9fc2461b9a)">
     <use xlink:href="#mcd6139f372" x="316.546995" y="480.914526" style="fill: #f28e2b; stroke: #f28e2b; stroke-width: 1.5"/>
    </g>
   </g>
   <g id="PathCollection_3">
    <defs>
     <path id="m47402b5271" d="M -3.354102 3.354102 
L 3.354102 -3.354102 
M -3.354102 -3.354102 
L 3.354102 3.354102 
" style="stroke: #35a16b; stroke-width: 1.5"/>
    </defs>
    <g clip-path="url(#p9fc2461b9a)">
     <use xlink:href="#m47402b5271" x="674.30069" y="480.914526" style="fill: #35a16b; stroke: #35a16b; stroke-width: 1.5"/>
    </g>
   </g>
   <g id="PathCollection_4">
    <defs>
     <path id="m5ed0f9bbef" d="M -3.354102 3.354102 
L 3.354102 -3.354102 
M -3.354102 -3.354102 
L 3.354102 3.354102 
" style="stroke: #d1495b; stroke-width: 1.5"/>
    </defs>
    <g clip-path="url(#p9fc2461b9a)">
     <use xlink:href="#m5ed0f9bbef" x="968.921379" y="480.914526" style="fill: #d1495b; stroke: #d1495b; stroke-width: 1.5"/>
    </g>
   </g>
   <g id="PathCollection_5">
    <defs>
     <path id="mb20acf02ef" d="M -3.354102 3.354102 
L 3.354102 -3.354102 
M -3.354102 -3.354102 
L 3.354102 3.354102 
" style="stroke: #8f63b8; stroke-width: 1.5"/>
    </defs>
    <g clip-path="url(#p9fc2461b9a)">
     <use xlink:href="#mb20acf02ef" x="116.625813" y="480.914526" style="fill: #8f63b8; stroke: #8f63b8; stroke-width: 1.5"/>
    </g>
   </g>
   <g id="PathCollection_6">
    <defs>
     <path id="mbe644d981a" d="M -3.354102 3.354102 
L 3.354102 -3.354102 
M -3.354102 -3.354102 
L 3.354102 3.354102 
" style="stroke: #8c6d31; stroke-width: 1.5"/>
    </defs>
    <g clip-path="url(#p9fc2461b9a)">
     <use xlink:href="#mbe644d981a" x="113.118424" y="480.914526" style="fill: #8c6d31; stroke: #8c6d31; stroke-width: 1.5"/>
    </g>
   </g>
   <g id="PathCollection_7">
    <defs>
     <path id="m394da98d8a" d="M -3.354102 3.354102 
L 3.354102 -3.354102 
M -3.354102 -3.354102 
L 3.354102 3.354102 
" style="stroke: #159b9c; stroke-width: 1.5"/>
    </defs>
    <g clip-path="url(#p9fc2461b9a)">
     <use xlink:href="#m394da98d8a" x="242.891823" y="480.914526" style="fill: #159b9c; stroke: #159b9c; stroke-width: 1.5"/>
    </g>
   </g>
   <g id="PathCollection_8">
    <defs>
     <path id="m1c2e6c55b7" d="M 0 3.708099 
C 0.983399 3.708099 1.926654 3.317391 2.622022 2.622022 
C 3.317391 1.926654 3.708099 0.983399 3.708099 0 
C 3.708099 -0.983399 3.317391 -1.926654 2.622022 -2.622022 
C 1.926654 -3.317391 0.983399 -3.708099 0 -3.708099 
C -0.983399 -3.708099 -1.926654 -3.317391 -2.622022 -2.622022 
C -3.317391 -1.926654 -3.708099 -0.983399 -3.708099 0 
C -3.708099 0.983399 -3.317391 1.926654 -2.622022 2.622022 
C -1.926654 3.317391 -0.983399 3.708099 0 3.708099 
z
" style="stroke: #d85c9e"/>
    </defs>
    <g clip-path="url(#p9fc2461b9a)">
     <use xlink:href="#m1c2e6c55b7" x="968.921379" y="142.388211" style="fill: #d85c9e; stroke: #d85c9e"/>
    </g>
   </g>
   <g id="legend_1">
    <g id="line2d_34">
     <path d="M 90.54 84.006328 
L 105.94 84.006328 
L 105.94 84.006328 
L 121.34 84.006328 
L 121.34 84.006328 
" style="fill: none; stroke: #2878b5; stroke-opacity: 0.95; stroke-width: 1.8; stroke-linecap: square"/>
    </g>
    <g id="text_20">
     <text style="font-size: 11px; font-family: 'Noto Sans CJK JP'; text-anchor: start" x="130.14" y="87.856328" transform="rotate(-0 130.14 87.856328)">random</text>
    </g>
    <g id="line2d_35">
     <path d="M 90.54 100.781328 
L 105.94 100.781328 
L 105.94 100.781328 
L 121.34 100.781328 
L 121.34 100.781328 
" style="fill: none; stroke-dasharray: 6.66,2.88; stroke-dashoffset: 0; stroke: #f28e2b; stroke-opacity: 0.95; stroke-width: 1.8"/>
    </g>
    <g id="text_21">
     <text style="font-size: 11px; font-family: 'Noto Sans CJK JP'; text-anchor: start" x="130.14" y="104.631327" transform="rotate(-0 130.14 104.631327)">tight</text>
    </g>
    <g id="line2d_36">
     <path d="M 192.980938 84.006328 
L 208.380938 84.006328 
L 208.380938 84.006328 
L 223.780937 84.006328 
L 223.780937 84.006328 
" style="fill: none; stroke-dasharray: 11.52,2.88,1.8,2.88; stroke-dashoffset: 0; stroke: #35a16b; stroke-opacity: 0.95; stroke-width: 1.8"/>
    </g>
    <g id="text_22">
     <text style="font-size: 11px; font-family: 'Noto Sans CJK JP'; text-anchor: start" x="232.580938" y="87.856328" transform="rotate(-0 232.580938 87.856328)">loose</text>
    </g>
    <g id="line2d_37">
     <path d="M 192.980938 100.781328 
L 208.380938 100.781328 
L 208.380938 100.781328 
L 223.780937 100.781328 
L 223.780937 100.781328 
" style="fill: none; stroke-dasharray: 1.8,2.97; stroke-dashoffset: 0; stroke: #d1495b; stroke-opacity: 0.95; stroke-width: 1.8"/>
    </g>
    <g id="text_23">
     <text style="font-size: 11px; font-family: 'Noto Sans CJK JP'; text-anchor: start" x="232.580938" y="104.631327" transform="rotate(-0 232.580938 104.631327)">nit</text>
    </g>
    <g id="line2d_38">
     <path d="M 282.278594 84.006328 
L 297.678594 84.006328 
L 297.678594 84.006328 
L 313.078594 84.006328 
L 313.078594 84.006328 
" style="fill: none; stroke: #8f63b8; stroke-opacity: 0.95; stroke-width: 1.8; stroke-linecap: square"/>
    </g>
    <g id="text_24">
     <text style="font-size: 11px; font-family: 'Noto Sans CJK JP'; text-anchor: start" x="321.878594" y="87.856328" transform="rotate(-0 321.878594 87.856328)">calling_station</text>
    </g>
    <g id="line2d_39">
     <path d="M 282.278594 101.01164 
L 297.678594 101.01164 
L 297.678594 101.01164 
L 313.078594 101.01164 
L 313.078594 101.01164 
" style="fill: none; stroke-dasharray: 6.66,2.88; stroke-dashoffset: 0; stroke: #8c6d31; stroke-opacity: 0.95; stroke-width: 1.8"/>
    </g>
    <g id="text_25">
     <text style="font-size: 11px; font-family: 'Noto Sans CJK JP'; text-anchor: start" x="321.878594" y="104.86164" transform="rotate(-0 321.878594 104.86164)">maniac</text>
    </g>
    <g id="line2d_40">
     <path d="M 420.055313 84.006328 
L 435.455312 84.006328 
L 435.455312 84.006328 
L 450.855313 84.006328 
L 450.855313 84.006328 
" style="fill: none; stroke-dasharray: 11.52,2.88,1.8,2.88; stroke-dashoffset: 0; stroke: #159b9c; stroke-opacity: 0.95; stroke-width: 1.8"/>
    </g>
    <g id="text_26">
     <text style="font-size: 11px; font-family: 'Noto Sans CJK JP'; text-anchor: start" x="459.655313" y="87.856328" transform="rotate(-0 459.655313 87.856328)">push_fold</text>
    </g>
    <g id="line2d_41">
     <path d="M 420.055313 100.781328 
L 435.455312 100.781328 
L 435.455312 100.781328 
L 450.855313 100.781328 
L 450.855313 100.781328 
" style="fill: none; stroke-dasharray: 1.8,2.97; stroke-dashoffset: 0; stroke: #d85c9e; stroke-opacity: 0.95; stroke-width: 1.8"/>
    </g>
    <g id="text_27">
     <text style="font-size: 11px; font-family: 'Noto Sans CJK JP'; text-anchor: start" x="459.655313" y="104.631327" transform="rotate(-0 459.655313 104.631327)">equity</text>
    </g>
   </g>
  </g>
  <g id="text_28">
   <text style="font-size: 21px; font-family: 'Noto Sans CJK JP'; text-anchor: start" x="80.64" y="33.130688" transform="rotate(-0 80.64 33.130688)">八种机器人同桌 · 筹码变化</text>
  </g>
  <g id="text_29">
   <text style="font-size: 11px; font-family: 'Noto Sans CJK JP'; text-anchor: start; fill: #46515e" x="80.64" y="49.248" transform="rotate(-0 80.64 49.248)">每人 2,000 筹码  |  固定盲注 10/20  |  种子 42  |  共 252 手  |  冠军 equity</text>
  </g>
  <g id="text_30">
   <text style="font-size: 10px; font-family: 'Noto Sans CJK JP'; text-anchor: start; fill: #46515e" x="80.64" y="533.52" transform="rotate(-0 80.64 533.52)">每手结算后记录；第 0 手为初始状态。× 表示淘汰；淘汰后筹码持续为 0。</text>
  </g>
 </g>
 <defs>
  <clipPath id="p9fc2461b9a">
   <rect x="80.64" y="120.384" width="897.12" height="366.624"/>
  </clipPath>
 </defs>
</svg>
